<svg width="260" height="77" viewBox="0 0 260 77" fill="none" xmlns="http://www.w3.org/2000/svg">
<path d="M25.2919 0.36V1.96C23.4785 2.01333 22.0919 2.22666 21.1319 2.6C20.2252 2.92 19.6119 3.56 19.2919 4.52C18.9719 5.42666 18.8119 6.86666 18.8119 8.84V48.84C18.8119 50.6533 18.9452 52.0133 19.2119 52.92C19.5319 53.8267 20.1185 54.44 20.9719 54.76C21.8785 55.0267 23.1585 55.16 24.8119 55.16H30.0119C32.3052 55.16 34.2252 54.84 35.7719 54.2C37.3719 53.56 38.7052 52.6 39.7719 51.32C40.8385 50.04 41.6652 48.3867 42.2519 46.36C42.8385 44.3333 43.2919 41.96 43.6119 39.24H45.4519C45.2919 40.9467 45.2119 43.1867 45.2119 45.96C45.2119 47.0267 45.2385 48.6 45.2919 50.68C45.3985 52.7067 45.5585 54.8133 45.7719 57C43.0519 56.8933 39.9852 56.84 36.5719 56.84C33.1585 56.7867 30.1185 56.76 27.4519 56.76C26.2252 56.76 24.6519 56.76 22.7319 56.76C20.8119 56.76 18.7319 56.7867 16.4919 56.84C14.3052 56.84 12.0652 56.8667 9.77188 56.92C7.53188 56.92 5.37188 56.9467 3.29188 57V55.4C5.10521 55.2933 6.46521 55.08 7.37188 54.76C8.27854 54.44 8.86521 53.8 9.13188 52.84C9.45188 51.88 9.61188 50.44 9.61188 48.52V8.84C9.61188 6.86666 9.45188 5.42666 9.13188 4.52C8.86521 3.56 8.25188 2.92 7.29188 2.6C6.38521 2.22666 5.05188 2.01333 3.29188 1.96V0.36C4.51854 0.413332 6.09188 0.466665 8.01188 0.519998C9.98521 0.57333 12.0919 0.599997 14.3319 0.599997C16.3585 0.599997 18.3585 0.57333 20.3319 0.519998C22.3585 0.466665 24.0119 0.413332 25.2919 0.36Z" fill="#1B2D41"/>
<path d="M52.3272 19.36V21.04C49.7672 21.04 48.1672 21.3067 47.5272 21.84C46.9405 22.32 47.0205 23.1733 47.7672 24.4L78.2472 70.32C79.3139 71.8667 80.1672 72.9067 80.8072 73.44C81.5005 73.92 82.4072 74.2133 83.5272 74.32V76C82.7272 75.9467 81.5539 75.8933 80.0072 75.84C78.5139 75.7333 76.9405 75.68 75.2872 75.68C73.1005 75.68 70.8605 75.7333 68.5672 75.84C66.3272 75.8933 64.6472 75.9467 63.5272 76V74.32C66.0872 74.32 67.7405 74.16 68.4872 73.84C69.2339 73.52 69.2339 72.7733 68.4872 71.6L37.6072 25.04C36.5939 23.4933 35.7672 22.4533 35.1272 21.92C34.4872 21.3867 33.5539 21.0933 32.3272 21.04V19.36C33.1805 19.4133 34.3805 19.4933 35.9272 19.6C37.5272 19.6533 39.1272 19.68 40.7272 19.68C43.0205 19.68 45.1539 19.6533 47.1272 19.6C49.1539 19.4933 50.8872 19.4133 52.3272 19.36ZM55.5272 47.04C55.5272 47.04 55.5805 47.2267 55.6872 47.6C55.7939 47.92 55.9005 48.2667 56.0072 48.64C56.1672 48.96 56.2472 49.12 56.2472 49.12L46.9672 62.56C44.9939 65.44 43.9272 67.7333 43.7672 69.44C43.6605 71.0933 44.2205 72.32 45.4472 73.12C46.7272 73.8667 48.4872 74.2933 50.7272 74.4V76C49.9805 75.9467 49.1005 75.92 48.0872 75.92C47.0739 75.8667 46.0339 75.84 44.9672 75.84C43.9005 75.7867 42.8605 75.76 41.8472 75.76C40.8872 75.76 40.0605 75.76 39.3672 75.76C37.9805 75.76 36.6739 75.7867 35.4472 75.84C34.2205 75.84 33.1805 75.8933 32.3272 76V74.4C34.0872 74.0267 35.7672 73.1733 37.3672 71.84C38.9672 70.4533 40.5939 68.5867 42.2472 66.24L55.5272 47.04ZM81.2072 19.36V20.96C79.5539 21.28 77.9539 22.1067 76.4072 23.44C74.8605 24.7733 73.3405 26.5067 71.8472 28.64L58.9672 47.2C58.9672 47.2 58.8605 46.8533 58.6472 46.16C58.4872 45.4667 58.4072 45.12 58.4072 45.12L67.2872 32.4C69.2072 29.6267 70.3272 27.4133 70.6472 25.76C71.0205 24.1067 70.6739 22.9067 69.6072 22.16C68.5939 21.4133 66.9672 21.0133 64.7272 20.96V19.36C65.7405 19.4133 66.8072 19.4667 67.9272 19.52C69.0472 19.52 70.1405 19.5467 71.2072 19.6C72.3272 19.6 73.3405 19.6 74.2472 19.6C75.6872 19.6 76.9939 19.5733 78.1672 19.52C79.3939 19.4667 80.4072 19.4133 81.2072 19.36Z" fill="#B8936A"/>
<rect width="1" height="76" transform="translate(100)" fill="#B8936A"/>
<path d="M121.392 13V1.966H117.072V0.399999H127.494V1.966H123.174V13H121.392ZM143.89 13V0.399999H145.69V13H143.89ZM134.854 13V0.399999H136.654V13H134.854ZM136.474 7.384V5.818H144.052V7.384H136.474ZM154.862 13V0.399999H163.754V1.966H156.662V11.434H164.006V13H154.862ZM156.5 7.366V5.836H162.98V7.366H156.5Z" fill="#1B2D41"/>
<path d="M118.89 44.5V31.9H120.69V42.934H127.512V44.5H118.89ZM134.977 44.5V31.9H136.777V44.5H134.977ZM145.95 44.5V31.9H147.426L155.76 42.25H154.986V31.9H156.786V44.5H155.31L146.976 34.15H147.75V44.5H145.95ZM165.957 44.5V31.9H174.849V33.466H167.757V42.934H175.101V44.5H165.957ZM167.595 38.866V37.336H174.075V38.866H167.595ZM183.416 44.5V31.9H184.892L193.226 42.25H192.452V31.9H194.252V44.5H192.776L184.442 34.15H185.216V44.5H183.416Z" fill="#1B2D41"/>
<path d="M118.89 76V63.4H127.782V64.966H120.69V74.434H128.034V76H118.89ZM120.528 70.366V68.836H127.008V70.366H120.528ZM134.57 76L139.808 68.854V70.24L134.858 63.4H136.91L140.834 68.782L140.024 68.8L143.93 63.4H145.892L140.978 70.132V68.836L146.216 76H144.146L139.97 70.258H140.762L136.64 76H134.57ZM158.914 76.144C157.954 76.144 157.066 75.988 156.25 75.676C155.446 75.352 154.744 74.902 154.144 74.326C153.556 73.738 153.094 73.054 152.758 72.274C152.422 71.494 152.254 70.636 152.254 69.7C152.254 68.764 152.422 67.906 152.758 67.126C153.094 66.346 153.562 65.668 154.162 65.092C154.762 64.504 155.464 64.054 156.268 63.742C157.084 63.418 157.972 63.256 158.932 63.256C159.904 63.256 160.798 63.424 161.614 63.76C162.442 64.084 163.144 64.57 163.72 65.218L162.55 66.352C162.07 65.848 161.53 65.476 160.93 65.236C160.33 64.984 159.688 64.858 159.004 64.858C158.296 64.858 157.636 64.978 157.024 65.218C156.424 65.458 155.902 65.794 155.458 66.226C155.014 66.658 154.666 67.174 154.414 67.774C154.174 68.362 154.054 69.004 154.054 69.7C154.054 70.396 154.174 71.044 154.414 71.644C154.666 72.232 155.014 72.742 155.458 73.174C155.902 73.606 156.424 73.942 157.024 74.182C157.636 74.422 158.296 74.542 159.004 74.542C159.688 74.542 160.33 74.422 160.93 74.182C161.53 73.93 162.07 73.546 162.55 73.03L163.72 74.164C163.144 74.812 162.442 75.304 161.614 75.64C160.798 75.976 159.898 76.144 158.914 76.144ZM180.548 76V63.4H182.348V76H180.548ZM171.512 76V63.4H173.312V76H171.512ZM173.132 70.384V68.818H180.71V70.384H173.132ZM189.611 76L195.317 63.4H197.099L202.823 76H200.933L195.839 64.408H196.559L191.465 76H189.611ZM192.041 72.85L192.527 71.41H199.619L200.141 72.85H192.041ZM210.103 76V63.4H211.579L219.913 73.75H219.139V63.4H220.939V76H219.463L211.129 65.65H211.903V76H210.103ZM235.798 76.144C234.826 76.144 233.932 75.988 233.116 75.676C232.3 75.352 231.592 74.902 230.992 74.326C230.392 73.738 229.924 73.054 229.588 72.274C229.252 71.494 229.084 70.636 229.084 69.7C229.084 68.764 229.252 67.906 229.588 67.126C229.924 66.346 230.392 65.668 230.992 65.092C231.604 64.504 232.318 64.054 233.134 63.742C233.95 63.418 234.85 63.256 235.834 63.256C236.83 63.256 237.742 63.418 238.57 63.742C239.398 64.066 240.1 64.552 240.676 65.2L239.56 66.316C239.044 65.812 238.48 65.446 237.868 65.218C237.268 64.978 236.614 64.858 235.906 64.858C235.186 64.858 234.514 64.978 233.89 65.218C233.278 65.458 232.744 65.794 232.288 66.226C231.844 66.658 231.496 67.174 231.244 67.774C231.004 68.362 230.884 69.004 230.884 69.7C230.884 70.384 231.004 71.026 231.244 71.626C231.496 72.214 231.844 72.73 232.288 73.174C232.744 73.606 233.278 73.942 233.89 74.182C234.502 74.422 235.168 74.542 235.888 74.542C236.56 74.542 237.202 74.44 237.814 74.236C238.438 74.02 239.014 73.666 239.542 73.174L240.568 74.542C239.944 75.07 239.212 75.472 238.372 75.748C237.544 76.012 236.686 76.144 235.798 76.144ZM240.568 74.542L238.84 74.308V69.628H240.568V74.542ZM249.415 76V63.4H258.307V64.966H251.215V74.434H258.559V76H249.415ZM251.053 70.366V68.836H257.533V70.366H251.053Z" fill="#1B2D41"/>
</svg>
